# xmcd
#
# Track frame offsets: 
#        150
#        15312
#        30167
#        53680
#        83685
#        96572
#        107347
#        120935
#        135450
#
# Disc length: 2045 seconds
#
# Revision: 3
# Processed by: cddbd v1.5.2PL0 Copyright (c) Steve Scherf et al.
# Submitted via: ExactAudioCopyFreeDBPlugin 1.0
#
DISCID=5707fb09
DTITLE=Bobby Womack - Bobby Womack:  The Collection [BCM Records] [box
DTITLE=set]
DYEAR=1990
DGENRE=Soul
TTITLE0=Home is Where the Heart Is
TTITLE1=A Little Bit Salty
TTITLE2=Standing in the Safety Zone
TTITLE3=One More Chance on Love
TTITLE4=How Long (Has This Been Goin' On)
TTITLE5=I Could Never Be Satisfied
TTITLE6=Something for My Head
TTITLE7=A Change is Gonna Come
TTITLE8=We've Only Just Begun
EXTD=
EXTT0=
EXTT1=
EXTT2=
EXTT3=
EXTT4=
EXTT5=
EXTT6=
EXTT7=
EXTT8=
PLAYORDER=
